<svg xmlns="http://www.w3.org/2000/svg" width="256" height="256" fill="none"><g filter="url(#a)"><g clip-path="url(#b)"><rect width="256" height="256" fill="color(display-p3 .1733 .0267 .1073)" rx="128"/><path stroke="color(display-p3 .8627 .1373 .5294)" stroke-width="10" d="m150.035 192 142 1"/><ellipse cx="87" cy="120" fill="color(display-p3 .9725 .8275 .9059)" rx="13" ry="8"/><path fill="color(display-p3 .9725 .8275 .9059)" fill-rule="evenodd" d="M101.139 38.263c-1.6764-7.0088-9.9916-9.9969-15.7458-5.6584L52.0779 57.7231c-.9878.7448-2.2162 1.0925-3.4501 1.0038-2.8433-.2042-5.7211-.3084-8.6278-.3084-52.5128 0-97 34.4995-97 79.1815 0 22.093 11.0445 44.911 28.4288 62.117C-11.1382 216.973 13.0784 229 40 229c9.3865 0 18.4441-1.462 27-4.098V251c0 2.762 2.2386 5 5 5h20.0132c2.5448 0 4.6836-1.911 4.9686-4.44l2.9543-26.219c.2799-2.489 2.3799-4.324 4.8249-4.861.724-.159 1.436-.353 2.132-.583 2.205-.729 4.208-1.797 5.895-3.144 1.688-1.346 3.027-2.945 3.94-4.704.377-.727.679-1.647.903-2.61.51-2.192 1.987-4.165 4.164-4.733l2.084-.544c.412-.107.837-.162 1.262-.162h10.218c.425 0 .85.055 1.262.162l10.258 2.676c.412.108.837.162 1.262.162H154c2.761 0 5-2.238 5-5v-18c0-2.761-2.239-5-5-5h-29.191C132.533 165.993 137 151.65 137 137.6c0-19.979-9.03-38.0624-23.615-51.8194-.73-.6885-1.255-1.5689-1.489-2.5447L101.139 38.263Zm11.793 140.755c.045-.012.092-.018.138-.018h11.739c-4.421 7.446-9.909 14.453-16.238 20.717C97.2163 210.956 82.9836 219.978 67 224.902v-10.524c13.1215-4.569 24.9171-12.247 34.536-21.768 4.28-4.235 8.099-8.806 11.396-13.592Zm0 0-22.3113 5.82c-.4121.108-.8363.162-1.2621.162H72c-2.7614 0-5 2.239-5 5v24.378C58.4813 217.344 49.4038 219 40 219c-23.8886 0-45.67204-10.687-61.5365-26.39C-37.4496 176.859-47 156.477-47 137.6c0-37.256 37.89237-69.1815 87-69.1815 3.8926 0 7.7237.2036 11.4777.5979 1.2591.1323 2.5215-.218 3.5324-.9802l30.3067-22.8501c2.8771-2.1693 7.0347-.6752 7.8729 2.8292l9.7033 40.5664c.241 1.0061.788 1.9129 1.565 2.5952C118.617 103.6 127 119.919 127 137.6c0 13.801-5.105 28.406-14.068 41.418Zm-11.601 33.945c-.257 2.282 1.628 4.279 3.809 3.558 1.65-.545 3.148-1.344 4.411-2.351 1.262-1.007 2.263-2.203 2.946-3.519.546-1.051.88-2.163.993-3.294.024-.245-.206-.431-.445-.369-.03.008-.061.012-.092.012h-6.482c-2.545 0-4.684 1.912-4.969 4.44l-.171 1.523Z" clip-rule="evenodd"/><g filter="url(#c)" opacity=".25"><path fill="color(display-p3 .9725 .8275 .9059)" fill-rule="evenodd" d="M114.139 38.263c-1.676-7.0088-9.992-9.9969-15.7458-5.6584L63.5434 58.8801c-3.4643-.3052-6.9821-.4616-10.5434-.4616-52.51276 0-97 34.4995-97 79.1815 0 22.093 11.0445 44.911 28.4288 62.117C1.86185 216.973 26.0784 229 53 229c9.3865 0 18.4441-1.462 27-4.098V256h29.481l3.945-35.005c2.22-.047 4.412-.419 6.467-1.098 2.205-.729 4.208-1.797 5.895-3.144 1.688-1.346 3.027-2.945 3.94-4.704.887-1.708 1.356-4.479 1.382-6.382L137.5 204H149l11.5 3H172v-28h-34.191C145.533 165.993 150 151.65 150 137.6c0-20.49-9.497-38.9861-24.745-52.8664L114.139 38.263Zm11.793 140.755L126 179h11.809c-4.421 7.446-9.909 14.453-16.238 20.717-11.355 11.239-25.5874 20.261-41.571 25.185v-10.524c13.1215-4.569 24.917-12.247 34.536-21.768 4.28-4.235 8.099-8.806 11.396-13.592Zm0 0L103 185H80v29.378C71.4813 217.344 62.4038 219 53 219c-23.8886 0-45.67204-10.687-61.53647-26.39C-24.4496 176.859-34 156.477-34 137.6c0-37.256 37.89237-69.1815 87-69.1815 3.8926 0 7.7237.2036 11.4777.5979l1.9593.2058 1.5731-1.186 36.4029-27.4468 11.48 47.9923.37 1.5465 1.195 1.0487C131.617 103.6 140 119.919 140 137.6c0 13.801-5.105 28.406-14.068 41.418Zm-12.092 38.305c1.476-.078 2.929-.349 4.3-.802 1.65-.545 3.148-1.344 4.411-2.351 1.262-1.007 2.263-2.203 2.946-3.519.625-1.204.973-2.487 1.027-3.788L126 207h-10.997l-1.163 10.323Z" clip-rule="evenodd"/></g></g></g><defs><filter id="a" width="276" height="256" x="-20" y="0" color-interpolation-filters="sRGB" filterUnits="userSpaceOnUse"><feFlood flood-opacity="0" result="BackgroundImageFix"/><feBlend in="SourceGraphic" in2="BackgroundImageFix" result="shape"/><feColorMatrix in="SourceAlpha" result="hardAlpha" values="0 0 0 0 0 0 0 0 0 0 0 0 0 0 0 0 0 0 127 0"/><feOffset dx="-20"/><feGaussianBlur stdDeviation="10"/><feComposite in2="hardAlpha" k2="-1" k3="1" operator="arithmetic"/><feColorMatrix values="0 0 0 0 0 0 0 0 0 0 0 0 0 0 0 0 0 0 0.25 0"/><feBlend in2="shape" result="effect1_innerShadow_1591_192"/></filter><filter id="c" width="256" height="265.418" x="-64" y="10.582" color-interpolation-filters="sRGB" filterUnits="userSpaceOnUse"><feFlood flood-opacity="0" result="BackgroundImageFix"/><feBlend in="SourceGraphic" in2="BackgroundImageFix" result="shape"/><feGaussianBlur result="effect1_foregroundBlur_1591_192" stdDeviation="10"/></filter><clipPath id="b"><rect width="256" height="256" fill="#fff" rx="128"/></clipPath></defs></svg>