<svg xmlns="http://www.w3.org/2000/svg" width="512" height="512"><rect width="512" height="512" fill="#dedede" rx="50"/><path d="M253 152q0 9-5 19-4 9-12 16-9 7-21 11-11 4-28 4-18 0-32-4-14-3-29-10v-27h1q13 10 29 16 17 6 31 6 21 0 32-8t11-20q0-11-5-16-6-6-16-9l-19-3-20-4q-22-4-33-16-10-11-10-29 0-21 17-34 18-13 45-13 17 0 32 3l25 8v26h-1q-10-8-25-13t-31-5q-18 0-29 7-10 7-10 19 0 10 5 16t19 9l20 4 22 4q18 5 28 15 9 10 9 28zm149 40-22 8q-11 2-25 2-27 0-48-17t-26-46h-15l5-13h8v-21h-13l5-13h10q7-28 27-45 21-16 48-16 15 0 26 2 10 2 20 7v24h-2q-9-8-20-11t-25-3q-17 0-31 11t-20 31h53l-5 13h-50v21h42l-5 13h-35q6 21 20 32 15 12 31 12 18 0 28-4 10-3 17-10h2zM251 337h-59v145h-22V337h-59v-20h140zm148 145h-22v-81h-82v81h-22V317h22v65h82v-65h22z" fill="#111111"/></svg>