
<svg xmlns="http://www.w3.org/2000/svg" viewBox="0 0 .99999997 .69983349">
  <rect width="1" height=".59019452" y=".1096389" fill="#280202ff" rx=".05713887" ry=".05713887"/>
  <rect width="1" height=".59019452" fill="#470404" rx=".05713887" ry=".05713887"/>
  <path fill="#8c0505" d="M.39802781 0h.20394386v.59019459H.39802781Z"/>
  <path fill="#500d0dff" d="M.39802781.59019459h.20394386v.10963893H.39802781Z"/>
  <path fill="#db1616" d="M.5219167.47430553c-.0951391 0-.17255629-.0804165-.17255629-.1791938 0-.0987778.0774172-.17919444.17255629-.17919444.0405829 0 .0799728.0150833.11088916.0424166.0137789.0121946.0150818.0332778.002889.0470835-.0121925.0138053-.0332767.0150833-.0470845.002889-.0189979-.0167776-.042056-.0256664-.066666-.0256664-.05836 0-.10583302.0504443-.10583302.11247202 0 .062028.0474709.11247266.10583302.11247266.0264142 0 .0516949-.0106111.0711936-.0298614.0130558-.0129441.0341682-.0128335.0471673.00030481.0129437.0131112.0128038.0342213-.00030481.0471673-.0320583.0316932-.0739997.0491393-.11808493.0491393z"/>
  <path fill="#db1616" d="M.49588881.28533333H.32633395c-.0184169 0-.0333616-.0149443-.0333616-.0333616 0-.0184167.0149447-.0333616.0333616-.0333616h.16955486c.0184186 0 .0333616.0149443.0333616.0333616 0 .0184165-.014946.0333616-.0333616.0333616zm0 .0935832H.32633395c-.0184169 0-.0333616-.0149443-.0333616-.0333616 0-.0184167.0149447-.0333616.0333616-.0333616h.16955486c.0184186 0 .0333616.0149443.0333616.0333616 0 .0184169-.014946.0333616-.0333616.0333616z"/>
</svg>
